<?xml version="1.0" standalone="no"?>
<!DOCTYPE svg PUBLIC "-//W3C//DTD SVG 20010904//EN"
 "http://www.w3.org/TR/2001/REC-SVG-20010904/DTD/svg10.dtd">
<svg version="1.0" xmlns="http://www.w3.org/2000/svg"
 width="512.000000pt" height="512.000000pt" viewBox="0 0 512.000000 512.000000"
 preserveAspectRatio="xMidYMid meet">
<metadata>
Created by potrace 1.14, written by Peter Selinger 2001-2017
</metadata>
<g transform="translate(0.000000,512.000000) scale(0.100000,-0.100000)"
fill="#000000" stroke="none">
<path d="M1786 5050 c-65 -41 -150 -53 -381 -55 -244 -3 -299 -8 -393 -37
-116 -36 -191 -95 -208 -164 -3 -16 -17 -44 -31 -61 -106 -143 -163 -408 -129
-601 16 -87 27 -61 -89 -222 -118 -164 -219 -358 -298 -570 -48 -130 -136
-469 -144 -554 -4 -53 -15 -88 -44 -144 -50 -97 -70 -187 -65 -293 6 -136 41
-232 125 -349 28 -38 53 -81 57 -97 33 -151 134 -409 216 -558 260 -471 630
-822 1109 -1053 208 -100 483 -184 679 -208 25 -3 52 -7 60 -9 83 -23 499 -23
616 -1 17 3 87 14 139 21 110 15 356 90 520 158 601 249 1121 800 1341 1419
62 175 129 477 133 600 1 32 6 40 42 60 52 29 75 75 78 153 3 70 -10 109 -46
147 -22 23 -24 32 -18 68 33 194 -22 403 -148 563 -16 21 -45 79 -64 129 -37
97 -146 323 -169 349 -8 8 -14 19 -14 23 0 15 -113 176 -194 277 -155 193
-345 367 -555 507 -106 70 -300 175 -396 214 -22 9 -62 25 -90 36 -85 34 -317
99 -420 117 -260 46 -526 51 -797 15 -78 -10 -87 -10 -148 13 -36 14 -88 29
-115 33 -28 4 -53 9 -57 10 -5 1 -20 2 -34 3 -22 1 -25 5 -21 31 7 40 -11 52
-47 30z"/>
</g>
</svg>
